<mxfile host="Electron" modified="2024-01-13T14:03:12.553Z" agent="Mozilla/5.0 (Windows NT 10.0; Win64; x64) AppleWebKit/537.36 (KHTML, like Gecko) draw.io/22.1.16 Chrome/120.0.6099.109 Electron/28.1.0 Safari/537.36" etag="JpNCPsrLc8uI8ZrHkY9Q" version="22.1.16" type="device">
  <diagram id="C5RBs43oDa-KdzZeNtuy" name="Page-1">
    <mxGraphModel dx="2387" dy="1008" grid="1" gridSize="10" guides="1" tooltips="1" connect="1" arrows="1" fold="1" page="1" pageScale="1" pageWidth="827" pageHeight="1169" math="0" shadow="0">
      <root>
        <mxCell id="WIyWlLk6GJQsqaUBKTNV-0" />
        <mxCell id="WIyWlLk6GJQsqaUBKTNV-1" parent="WIyWlLk6GJQsqaUBKTNV-0" />
        <mxCell id="GuaW3dG9oKcKkIAoMPv8-1" value="&lt;font style=&quot;font-size: 33px;&quot;&gt;Инициализация&lt;/font&gt;" style="rounded=0;whiteSpace=wrap;html=1;fillColor=#D1D2D3;fontSize=33;fontStyle=0;strokeColor=#000000;" parent="WIyWlLk6GJQsqaUBKTNV-1" vertex="1">
          <mxGeometry x="-320" y="70" width="600" height="49.02" as="geometry" />
        </mxCell>
        <mxCell id="GuaW3dG9oKcKkIAoMPv8-25" value="&lt;font style=&quot;font-size: 33px;&quot;&gt;Передача основных данных на землю&lt;/font&gt;" style="rounded=0;whiteSpace=wrap;html=1;fillColor=#D1D2D3;fontSize=33;fontStyle=0;strokeColor=#000000;" parent="WIyWlLk6GJQsqaUBKTNV-1" vertex="1">
          <mxGeometry x="-320" y="560.24" width="600" height="49.02" as="geometry" />
        </mxCell>
        <mxCell id="GuaW3dG9oKcKkIAoMPv8-26" value="&lt;font style=&quot;font-size: 33px;&quot;&gt;Запись полученных данных на SD&lt;/font&gt;" style="rounded=0;whiteSpace=wrap;html=1;fillColor=#D1D2D3;fontSize=33;fontStyle=0;strokeColor=#000000;" parent="WIyWlLk6GJQsqaUBKTNV-1" vertex="1">
          <mxGeometry x="-320" y="640" width="600" height="49.02" as="geometry" />
        </mxCell>
        <mxCell id="GuaW3dG9oKcKkIAoMPv8-29" value="&lt;font style=&quot;font-size: 33px;&quot;&gt;Сбор данных с датчиков&lt;/font&gt;" style="rounded=0;whiteSpace=wrap;html=1;fillColor=#D1D2D3;fontSize=33;fontStyle=0;strokeColor=#000000;" parent="WIyWlLk6GJQsqaUBKTNV-1" vertex="1">
          <mxGeometry x="-320" y="168.05" width="600" height="49.02" as="geometry" />
        </mxCell>
        <mxCell id="GuaW3dG9oKcKkIAoMPv8-30" value="" style="endArrow=classic;html=1;rounded=0;entryX=0.5;entryY=0;entryDx=0;entryDy=0;exitX=0.5;exitY=1;exitDx=0;exitDy=0;strokeWidth=5;strokeColor=#525252;" parent="WIyWlLk6GJQsqaUBKTNV-1" source="GuaW3dG9oKcKkIAoMPv8-1" target="GuaW3dG9oKcKkIAoMPv8-29" edge="1">
          <mxGeometry width="50" height="50" relative="1" as="geometry">
            <mxPoint x="-106.48936170212755" y="331.4634146341463" as="sourcePoint" />
            <mxPoint x="-21.914893617021335" y="249.7560975609756" as="targetPoint" />
          </mxGeometry>
        </mxCell>
        <mxCell id="GuaW3dG9oKcKkIAoMPv8-31" value="" style="endArrow=classic;html=1;rounded=0;exitX=0.5;exitY=1;exitDx=0;exitDy=0;entryX=0.5;entryY=0;entryDx=0;entryDy=0;strokeWidth=5;strokeColor=#525252;" parent="WIyWlLk6GJQsqaUBKTNV-1" source="GuaW3dG9oKcKkIAoMPv8-29" target="GuaW3dG9oKcKkIAoMPv8-3" edge="1">
          <mxGeometry width="50" height="50" relative="1" as="geometry">
            <mxPoint x="-106.48936170212755" y="331.4634146341463" as="sourcePoint" />
            <mxPoint x="-21.914893617021335" y="249.7560975609756" as="targetPoint" />
          </mxGeometry>
        </mxCell>
        <mxCell id="GuaW3dG9oKcKkIAoMPv8-32" value="" style="endArrow=classic;html=1;rounded=0;strokeWidth=5;strokeColor=#525252;" parent="WIyWlLk6GJQsqaUBKTNV-1" edge="1">
          <mxGeometry width="50" height="50" relative="1" as="geometry">
            <mxPoint x="-22.811382978723486" y="527.560975609756" as="sourcePoint" />
            <mxPoint x="-21.914893617021335" y="560.2439024390244" as="targetPoint" />
          </mxGeometry>
        </mxCell>
        <mxCell id="GuaW3dG9oKcKkIAoMPv8-34" value="" style="endArrow=classic;html=1;rounded=0;exitX=0.5;exitY=1;exitDx=0;exitDy=0;strokeWidth=5;strokeColor=#525252;edgeStyle=orthogonalEdgeStyle;" parent="WIyWlLk6GJQsqaUBKTNV-1" source="GuaW3dG9oKcKkIAoMPv8-26" edge="1">
          <mxGeometry width="50" height="50" relative="1" as="geometry">
            <mxPoint x="28.829787234042556" y="911.5853658536585" as="sourcePoint" />
            <mxPoint x="-21.914893617021335" y="135.3658536585366" as="targetPoint" />
            <Array as="points">
              <mxPoint x="-20" y="720" />
              <mxPoint x="770" y="720" />
              <mxPoint x="770" y="135" />
            </Array>
          </mxGeometry>
        </mxCell>
        <mxCell id="GuaW3dG9oKcKkIAoMPv8-35" value="" style="endArrow=classic;html=1;rounded=0;exitX=0.5;exitY=1;exitDx=0;exitDy=0;entryX=0.5;entryY=0;entryDx=0;entryDy=0;strokeWidth=5;strokeColor=#525252;" parent="WIyWlLk6GJQsqaUBKTNV-1" source="GuaW3dG9oKcKkIAoMPv8-25" target="GuaW3dG9oKcKkIAoMPv8-26" edge="1">
          <mxGeometry width="50" height="50" relative="1" as="geometry">
            <mxPoint x="79.57446808510633" y="821.7073170731708" as="sourcePoint" />
            <mxPoint x="164.14893617021266" y="740" as="targetPoint" />
          </mxGeometry>
        </mxCell>
        <mxCell id="GuaW3dG9oKcKkIAoMPv8-3" value="" style="rounded=0;whiteSpace=wrap;html=1;fillColor=#D1D2D3;labelBackgroundColor=default;strokeColor=#000000;" parent="WIyWlLk6GJQsqaUBKTNV-1" vertex="1">
          <mxGeometry x="-788" y="253.84" width="1540" height="277.8" as="geometry" />
        </mxCell>
        <mxCell id="GuaW3dG9oKcKkIAoMPv8-46" value="" style="endArrow=classic;html=1;rounded=0;exitX=1;exitY=0.5;exitDx=0;exitDy=0;strokeColor=#FFFFFF;strokeWidth=5;entryX=0;entryY=0.5;entryDx=0;entryDy=0;" parent="WIyWlLk6GJQsqaUBKTNV-1" source="GEKdzw0dcYdp2wbfsYTi-12" target="GuaW3dG9oKcKkIAoMPv8-41" edge="1">
          <mxGeometry width="50" height="50" relative="1" as="geometry">
            <mxPoint x="67.63" y="418.77999999999975" as="sourcePoint" />
            <mxPoint x="257.63" y="420" as="targetPoint" />
          </mxGeometry>
        </mxCell>
        <mxCell id="SRGHqm6jP9YhQp-xGabB-3" value="Аппарат находится на высоте 150м над землей" style="text;strokeColor=none;fillColor=#D1D2D3;align=center;verticalAlign=middle;rounded=0;horizontal=1;whiteSpace=wrap;labelBackgroundColor=none;fontSize=23;fontStyle=1;strokeWidth=0;" parent="WIyWlLk6GJQsqaUBKTNV-1" vertex="1">
          <mxGeometry x="76.63" y="296" width="164.17" height="65.37" as="geometry" />
        </mxCell>
        <mxCell id="SRGHqm6jP9YhQp-xGabB-2" value="Зафиксировано резкое изменение освещенности" style="text;strokeColor=none;fillColor=#D1D2D3;align=center;verticalAlign=middle;rounded=0;horizontal=1;whiteSpace=wrap;labelBackgroundColor=none;fontSize=23;fontStyle=1;strokeWidth=0;" parent="WIyWlLk6GJQsqaUBKTNV-1" vertex="1">
          <mxGeometry x="-266.19" y="293.61" width="177.66" height="73.54" as="geometry" />
        </mxCell>
        <mxCell id="SRGHqm6jP9YhQp-xGabB-1" value="Получен признак нахождения под обтекателем" style="text;strokeColor=none;fillColor=#D1D2D3;align=center;verticalAlign=middle;rounded=0;horizontal=1;whiteSpace=wrap;labelBackgroundColor=none;fontSize=23;fontStyle=1;strokeWidth=0;" parent="WIyWlLk6GJQsqaUBKTNV-1" vertex="1">
          <mxGeometry x="-606.37" y="296" width="170" height="73.54" as="geometry" />
        </mxCell>
        <mxCell id="SRGHqm6jP9YhQp-xGabB-4" value="Завершен выброс удобрений с аппарата" style="text;strokeColor=none;fillColor=#D1D2D3;align=center;verticalAlign=middle;rounded=0;horizontal=1;whiteSpace=wrap;labelBackgroundColor=none;fontSize=23;fontStyle=1;strokeWidth=0;" parent="WIyWlLk6GJQsqaUBKTNV-1" vertex="1">
          <mxGeometry x="400.6100000000002" y="307.09999999999997" width="178" height="62.44" as="geometry" />
        </mxCell>
        <mxCell id="GuaW3dG9oKcKkIAoMPv8-44" value="" style="endArrow=classic;html=1;rounded=0;exitX=1;exitY=0.5;exitDx=0;exitDy=0;strokeColor=#FFFFFF;entryX=0;entryY=0.5;entryDx=0;entryDy=0;strokeWidth=5;" parent="WIyWlLk6GJQsqaUBKTNV-1" source="GEKdzw0dcYdp2wbfsYTi-10" target="GEKdzw0dcYdp2wbfsYTi-12" edge="1">
          <mxGeometry width="50" height="50" relative="1" as="geometry">
            <mxPoint x="-272.3163441925627" y="419.9990243902439" as="sourcePoint" />
            <mxPoint x="-82.37" y="418.77999999999975" as="targetPoint" />
          </mxGeometry>
        </mxCell>
        <mxCell id="GuaW3dG9oKcKkIAoMPv8-20" value="" style="endArrow=classic;html=1;rounded=0;exitX=1;exitY=0.5;exitDx=0;exitDy=0;strokeColor=#FFFFFF;strokeWidth=5;entryX=0;entryY=0.5;entryDx=0;entryDy=0;" parent="WIyWlLk6GJQsqaUBKTNV-1" source="GEKdzw0dcYdp2wbfsYTi-8" target="GEKdzw0dcYdp2wbfsYTi-10" edge="1">
          <mxGeometry width="50" height="50" relative="1" as="geometry">
            <mxPoint x="-622.37" y="418.77999999999975" as="sourcePoint" />
            <mxPoint x="-423.92019419256314" y="418.06294439024373" as="targetPoint" />
          </mxGeometry>
        </mxCell>
        <mxCell id="GuaW3dG9oKcKkIAoMPv8-49" value="&lt;b style=&quot;border-color: var(--border-color); font-size: 24px;&quot;&gt;Состояние:&lt;br style=&quot;border-color: var(--border-color); font-size: 24px;&quot;&gt;Спуск C&amp;nbsp;&lt;/b&gt;" style="rounded=0;whiteSpace=wrap;html=1;verticalAlign=top;fontSize=24;fontColor=#3D3D3D;" parent="WIyWlLk6GJQsqaUBKTNV-1" vertex="1">
          <mxGeometry x="571.6122657616837" y="304.4390243902439" width="160" height="215.11999999999998" as="geometry" />
        </mxCell>
        <mxCell id="GuaW3dG9oKcKkIAoMPv8-53" value="" style="endArrow=classic;html=1;rounded=0;strokeColor=#FFFFFF;entryX=0;entryY=0.5;entryDx=0;entryDy=0;exitX=1;exitY=0.5;exitDx=0;exitDy=0;strokeWidth=5;" parent="WIyWlLk6GJQsqaUBKTNV-1" source="GuaW3dG9oKcKkIAoMPv8-41" target="GuaW3dG9oKcKkIAoMPv8-49" edge="1">
          <mxGeometry width="50" height="50" relative="1" as="geometry">
            <mxPoint x="348.31192165941354" y="385.390243902439" as="sourcePoint" />
            <mxPoint x="369.3942190464139" y="387.64230182926826" as="targetPoint" />
          </mxGeometry>
        </mxCell>
        <mxCell id="GuaW3dG9oKcKkIAoMPv8-50" value="&lt;font style=&quot;font-size: 22px;&quot;&gt;&lt;font face=&quot;Verdana&quot; style=&quot;font-size: 22px;&quot;&gt;Включение пищалки&lt;/font&gt;&lt;br style=&quot;font-size: 22px;&quot;&gt;&lt;/font&gt;" style="rounded=0;whiteSpace=wrap;html=1;fillColor=#D1D2D3;fontSize=22;fontStyle=1;strokeColor=#000000;" parent="WIyWlLk6GJQsqaUBKTNV-1" vertex="1">
          <mxGeometry x="586.612840723239" y="377.74086958412295" width="130" height="127.83835982766306" as="geometry" />
        </mxCell>
        <mxCell id="GEKdzw0dcYdp2wbfsYTi-8" value="&lt;b style=&quot;border-color: var(--border-color); font-size: 24px;&quot;&gt;Состояние:&lt;br style=&quot;border-color: var(--border-color); font-size: 24px;&quot;&gt;&amp;nbsp;До уклатки&lt;/b&gt;" style="rounded=0;whiteSpace=wrap;html=1;verticalAlign=top;fontSize=24;fontColor=#3D3D3D;" parent="WIyWlLk6GJQsqaUBKTNV-1" vertex="1">
          <mxGeometry x="-771.6199999999999" y="302" width="160" height="217.56" as="geometry" />
        </mxCell>
        <mxCell id="GEKdzw0dcYdp2wbfsYTi-12" value="&lt;b style=&quot;border-color: var(--border-color); font-size: 24px;&quot;&gt;Состояние:&lt;br style=&quot;border-color: var(--border-color); font-size: 24px;&quot;&gt;&amp;nbsp;Спуск A&lt;/b&gt;" style="rounded=0;whiteSpace=wrap;html=1;verticalAlign=top;fontSize=24;fontColor=#3D3D3D;" parent="WIyWlLk6GJQsqaUBKTNV-1" vertex="1">
          <mxGeometry x="-88.52999999999989" y="302" width="160" height="217.56" as="geometry" />
        </mxCell>
        <mxCell id="GuaW3dG9oKcKkIAoMPv8-41" value="&lt;b style=&quot;border-color: var(--border-color); font-size: 24px;&quot;&gt;Состояние:&lt;br style=&quot;border-color: var(--border-color); font-size: 24px;&quot;&gt;&amp;nbsp;Спуск B&lt;/b&gt;" style="rounded=0;whiteSpace=wrap;html=1;verticalAlign=top;fontSize=24;fontColor=#3D3D3D;" parent="WIyWlLk6GJQsqaUBKTNV-1" vertex="1">
          <mxGeometry x="249.63365580743664" y="304.4390243902439" width="160" height="214.15" as="geometry" />
        </mxCell>
        <mxCell id="GuaW3dG9oKcKkIAoMPv8-42" value="&lt;font style=&quot;font-size: 23px;&quot;&gt;&lt;font style=&quot;font-size: 23px;&quot;&gt;Сброс удобрений&lt;/font&gt;&lt;br style=&quot;font-size: 23px;&quot;&gt;&lt;/font&gt;" style="rounded=0;whiteSpace=wrap;html=1;fillColor=#D1D2D3;fontSize=23;fontStyle=1;strokeColor=#000000;" parent="WIyWlLk6GJQsqaUBKTNV-1" vertex="1">
          <mxGeometry x="264.6345648983458" y="385.7050243902439" width="130" height="121.57476923076925" as="geometry" />
        </mxCell>
        <mxCell id="GEKdzw0dcYdp2wbfsYTi-10" value="&lt;b style=&quot;border-color: var(--border-color); font-size: 24px;&quot;&gt;Состояние:&lt;br style=&quot;border-color: var(--border-color); font-size: 24px;&quot;&gt;&amp;nbsp;В ракете&lt;/b&gt;" style="rounded=0;whiteSpace=wrap;html=1;verticalAlign=top;fontSize=24;fontColor=#3D3D3D;" parent="WIyWlLk6GJQsqaUBKTNV-1" vertex="1">
          <mxGeometry x="-430.86634419256336" y="305.1690243902439" width="160" height="215.12" as="geometry" />
        </mxCell>
        <mxCell id="GEKdzw0dcYdp2wbfsYTi-11" value="&lt;font style=&quot;font-size: 21px;&quot;&gt;&lt;font style=&quot;font-size: 21px;&quot;&gt;Проверка данных об освящении на изменение&lt;/font&gt;&lt;br style=&quot;font-size: 21px;&quot;&gt;&lt;/font&gt;" style="rounded=0;whiteSpace=wrap;html=1;fillColor=#D1D2D3;fontSize=21;fontStyle=1;strokeColor=#000000;" parent="WIyWlLk6GJQsqaUBKTNV-1" vertex="1">
          <mxGeometry x="-415.8711739193139" y="384.97102439024394" width="130" height="124.46228571428574" as="geometry" />
        </mxCell>
        <mxCell id="GuaW3dG9oKcKkIAoMPv8-18" value="&lt;font style=&quot;font-size: 23px;&quot;&gt;Ожидание&lt;br style=&quot;font-size: 23px;&quot;&gt;момента сброса&lt;br style=&quot;font-size: 23px;&quot;&gt;&lt;/font&gt;" style="rounded=0;whiteSpace=wrap;html=1;fillColor=#D1D2D3;verticalAlign=middle;fontSize=23;fontStyle=1;strokeColor=#000000;" parent="WIyWlLk6GJQsqaUBKTNV-1" vertex="1">
          <mxGeometry x="-73.53363636363638" y="384.9760000000001" width="130" height="125.87400000000004" as="geometry" />
        </mxCell>
        <mxCell id="GuaW3dG9oKcKkIAoMPv8-5" value="&lt;font style=&quot;font-size: 22px;&quot;&gt;&lt;font style=&quot;font-size: 22px;&quot;&gt;Ожидание признаков нахождения в ракете&lt;/font&gt;&lt;br style=&quot;font-size: 22px;&quot;&gt;&lt;/font&gt;" style="rounded=0;whiteSpace=wrap;html=1;fillColor=#D1D2D3;verticalAlign=middle;fontSize=22;fontStyle=1;strokeColor=#000000;" parent="WIyWlLk6GJQsqaUBKTNV-1" vertex="1">
          <mxGeometry x="-756.619894661866" y="373.888" width="130" height="135.54858239999996" as="geometry" />
        </mxCell>
      </root>
    </mxGraphModel>
  </diagram>
</mxfile>
